<?xml version="1.0" encoding="UTF-8"?>
<svg width="181.95" height="100.26" version="1.1" viewBox="0 0 181.95 100.26" xmlns="http://www.w3.org/2000/svg"><g transform="translate(-17.083 -111.47)"><path d="m18.094 210.39c-2.638-3.1786-0.35812-6.2026 9.7025-12.87 23.313-15.449 50.504-34.395 85.078-59.278 31.659-22.785 32.477-23.33 37.539-25.022 22.039-7.366 48.661 9.6398 48.619 31.058-0.0227 11.72-0.3287 12.147-5.7374 8.0176-2.4951-1.9052-4.9098-3.464-5.366-3.464-1.6054 0-9.7794 4.3586-9.3815 5.0024 0.65623 1.0618-2.2361 17.132-3.9393 21.888-4.5738 12.77-16.686 24.749-33.062 32.696l-6 2.9118-58.09 0.29561c-51.19 0.2605-58.241 0.11367-59.362-1.2361zm113.45-9.9204c28.781-7.7075 43.807-35.765 31.989-59.732-1.639-3.3239-2.8794-7.8456-3.2212-11.742-0.76351-8.7048-2.6589-9.1447-13.188-3.061l-5.4194 3.1315 5.9853 5.633c17.712 16.669 13.246 42.247-9.3781 53.71l-5.7684 2.9228-77.661 0.62796-5.2128 3.3346c-10.796 6.9064-12.739 6.5388 34.502 6.5256 32.212-9e-3 43.571-0.33293 47.372-1.3508zm-0.55866-20.213c10.254-3.045 19.403-15.933 17.516-24.673-1.8466-8.5553-13.239-20.192-17.329-17.7-0.8958 0.54576-6.3537 4.3572-12.129 8.4698s-12.862 9.1164-15.75 11.12c-7.309 5.0704-6.899 5.3589 7.6151 5.3589 14.804 0 17.259-1.0322 19.149-8.0536 1.187-4.4082 1.7641-4.6294 6.1554-2.3586 6.0856 3.147 1.8232 14.308-6.8877 18.035-2.4008 1.0272-8.6994 1.3768-24.805 1.3768h-21.587l-5.8831 3.9952c-3.2357 2.1973-6.1626 4.4473-6.5042 5-1.1275 1.8244 54.13 1.3029 60.438-0.57037zm51.007-39.785c5.7855-1.7297 5.9479-2.6508 1.5286-8.671-9.0488-12.327-16.979-8.8548-10.92 4.7813 2.5419 5.7211 2.8454 5.8468 9.3916 3.8897z"/></g></svg>
